<svg width="24" height="25" viewBox="0 0 24 25" fill="none" xmlns="http://www.w3.org/2000/svg">
<path d="M3 8.18055C3 6.5004 3 5.66032 3.32698 5.01858C3.6146 4.4541 4.07354 3.99515 4.63803 3.70753C5.27976 3.38055 6.11984 3.38055 7.8 3.38055H16.2C17.8802 3.38055 18.7202 3.38055 19.362 3.70753C19.9265 3.99515 20.3854 4.4541 20.673 5.01858C21 5.66032 21 6.5004 21 8.18055V16.5806C21 18.2607 21 19.1008 20.673 19.7425C20.3854 20.307 19.9265 20.766 19.362 21.0536C18.7202 21.3806 17.8802 21.3806 16.2 21.3806H7.8C6.11984 21.3806 5.27976 21.3806 4.63803 21.0536C4.07354 20.766 3.6146 20.307 3.32698 19.7425C3 19.1008 3 18.2607 3 16.5806V8.18055Z" stroke="black" stroke-width="2" stroke-linecap="round" stroke-linejoin="round"/>
</svg>
