<svg width="24" height="25" viewBox="0 0 24 25" fill="none" xmlns="http://www.w3.org/2000/svg">
<path d="M2.39019 18.4789L10.6151 4.27226C11.0696 3.4871 11.2969 3.09452 11.5935 2.96266C11.8521 2.84765 12.1474 2.84765 12.4061 2.96266C12.7026 3.09452 12.9299 3.4871 13.3844 4.27226L21.6093 18.4789C22.0655 19.2669 22.2936 19.6609 22.2599 19.9842C22.2305 20.2663 22.0827 20.5226 21.8534 20.6893C21.5904 20.8805 21.1352 20.8805 20.2246 20.8805H3.77487C2.86435 20.8805 2.40908 20.8805 2.14613 20.6893C1.91677 20.5226 1.769 20.2663 1.73959 19.9842C1.70588 19.6609 1.93398 19.2669 2.39019 18.4789Z" stroke="black" stroke-width="2" stroke-linecap="round" stroke-linejoin="round"/>
</svg>
